<?xml version="1.0" encoding="iso-8859-1"?>
<!-- Uploaded to: SVG Repo, www.svgrepo.com, Generator: SVG Repo Mixer Tools -->
<!DOCTYPE svg PUBLIC "-//W3C//DTD SVG 1.1//EN" "http://www.w3.org/Graphics/SVG/1.1/DTD/svg11.dtd">
<svg height="800px" width="800px" version="1.1" id="Capa_1" xmlns="http://www.w3.org/2000/svg" xmlns:xlink="http://www.w3.org/1999/xlink" 
	 viewBox="0 0 373.655 373.655" xml:space="preserve">
<g>
	<path style="fill:#231F20;" d="M369.261,176.221L197.434,4.394c-5.857-5.858-15.355-5.858-21.213,0L4.394,176.221
		c-5.858,5.858-5.858,15.355,0,21.213l171.827,171.827c2.929,2.929,6.768,4.394,10.606,4.394s7.678-1.464,10.606-4.394
		l171.827-171.827C375.119,191.576,375.119,182.079,369.261,176.221z M186.827,337.441L36.213,186.827L186.827,36.214
		l150.614,150.614L186.827,337.441z"/>
	<path style="fill:#231F20;" d="M163.998,145.548c0.676,1.036,1.897,1.578,3.121,1.385l24.189-3.82
		c0.023,2.036,0.018,4.16-0.032,6.325c-0.431,18.927-3.659,24.856-4.393,25.965c-3.186,1.815-6.867,2.084-12.899,2.387
		c-8.922,0.448-21.141,1.062-32.82,10.897c-8.585,7.229-13.536,20.258-15.582,41.001c-1.284,13.017-0.897,24.52-0.88,25.003
		l29.981-1.061c-0.62-17.517,2.25-37.893,5.914-42.087c3.747-3.101,7.501-3.42,14.893-3.791c7.897-0.397,17.726-0.891,27.811-7.221
		c11.268-7.072,16.952-22.241,17.888-47.735c0.118-3.222,0.148-6.379,0.124-9.37l22.21,3.507c0.164,0.026,0.328,0.039,0.491,0.039
		c1.05,0,2.044-0.527,2.63-1.424c0.677-1.036,0.682-2.373,0.014-3.415l-38.692-60.302c-0.578-0.9-1.574-1.445-2.644-1.445
		c-1.07,0-2.066,0.544-2.644,1.445l-38.693,60.302C163.316,143.175,163.321,144.512,163.998,145.548z"/>
</g>
</svg>