<?xml version="1.0" encoding="UTF-8" standalone="no"?>
<!DOCTYPE svg PUBLIC "-//W3C//DTD SVG 1.1//EN" "http://www.w3.org/Graphics/SVG/1.1/DTD/svg11.dtd">
<!-- Created with Vectornator (http://vectornator.io/) -->
<svg height="100%" stroke-miterlimit="10" style="fill-rule:nonzero;clip-rule:evenodd;stroke-linecap:round;stroke-linejoin:round;" version="1.1" viewBox="0 0 395 395" width="100%" xml:space="preserve" xmlns="http://www.w3.org/2000/svg" xmlns:xlink="http://www.w3.org/1999/xlink">
<defs/>
<g id="Untitled">
<g opacity="1">
<path d="M232.208 288.822L226.815 288.822L226.863 167.204C226.698 158.903 219.929 152.221 211.587 152.221L162.792 152.221C154.346 152.221 147.5 159.068 147.5 167.511C147.5 175.957 154.346 182.803 162.792 182.803L171.168 182.803L171.168 288.822L165.775 288.822C157.329 288.822 150.483 295.668 150.483 304.112C150.483 312.559 157.329 319.404 165.775 319.404L232.208 319.404C240.654 319.404 247.5 312.559 247.5 304.112C247.5 295.668 240.654 288.822 232.208 288.822Z" fill="#000000" fill-rule="nonzero" opacity="1" stroke="none"/>
<path d="M166.917 107.708C166.917 89.973 181.294 75.596 199.029 75.596C216.764 75.596 231.141 89.973 231.141 107.708C231.141 125.443 216.764 139.82 199.029 139.82C181.294 139.82 166.917 125.443 166.917 107.708Z" fill="#000000" fill-rule="nonzero" opacity="1" stroke="none"/>
<path d="M313.001 0L81.999 0C36.785 0 0 36.784 0 81.998L0 312.991C0 358.211 36.785 395 81.999 395L313.001 395C358.216 395 395 358.211 395 312.991L395 81.998C395 36.784 358.216 0 313.001 0ZM360 312.991C360.24 342.608 344.421 359.94 313.001 360L81.999 360C59.4704 359.013 34.4793 347.033 35 312.991L35 81.998C34.0096 54.3157 47.3683 35.5187 81.999 35L313.001 35C346.547 35.2159 359.488 49.6581 360 81.998L360 312.991Z" fill="#000000" fill-rule="nonzero" opacity="1" stroke="none"/>
</g>
</g>
</svg>
