<?xml version="1.0" encoding="iso-8859-1"?>
<!-- Uploaded to: SVG Repo, www.svgrepo.com, Generator: SVG Repo Mixer Tools -->
<!DOCTYPE svg PUBLIC "-//W3C//DTD SVG 1.1//EN" "http://www.w3.org/Graphics/SVG/1.1/DTD/svg11.dtd">
<svg fill="#000000" height="800px" width="800px" version="1.1" id="Capa_1" xmlns="http://www.w3.org/2000/svg" xmlns:xlink="http://www.w3.org/1999/xlink" 
	 viewBox="0 0 329.562 329.562" xml:space="preserve">
<g>
	<path d="M326.174,272.923l-139.5-241.568c-4.516-7.821-12.861-12.638-21.893-12.638c-9.031,0-17.377,4.816-21.893,12.638
		L3.388,272.923c-4.518,7.821-4.518,17.46-0.002,25.282c4.516,7.822,12.862,12.641,21.895,12.641h279
		c9.031,0,17.379-4.818,21.895-12.641C330.691,290.383,330.691,280.744,326.174,272.923z M25.281,285.565l139.5-241.568
		l139.5,241.568H25.281z"/>
	<polygon points="158.8,214.07 155.538,270.783 174.025,270.783 170.763,214.07 	"/>
	<path d="M189.851,196.093c0,6.514-2.49,12.688-7.012,17.39c-1.146,1.191-1.11,3.086,0.082,4.232
		c0.58,0.559,1.328,0.837,2.075,0.837c0.785,0,1.569-0.308,2.157-0.919c5.601-5.821,8.686-13.471,8.686-21.54
		c0-8.059-3.084-15.708-8.684-21.539c-1.145-1.191-3.04-1.23-4.233-0.085c-1.192,1.146-1.23,3.04-0.085,4.233
		C187.361,183.411,189.851,189.588,189.851,196.093z"/>
	<path d="M146.639,174.469c-1.193-1.145-3.088-1.106-4.233,0.085c-5.6,5.831-8.684,13.48-8.684,21.539
		c0,8.069,3.085,15.719,8.686,21.54c0.588,0.611,1.372,0.919,2.157,0.919c0.747,0,1.495-0.278,2.075-0.837
		c1.192-1.146,1.229-3.041,0.082-4.232c-4.521-4.701-7.012-10.876-7.012-17.39c0-6.505,2.49-12.682,7.014-17.391
		C147.87,177.509,147.832,175.614,146.639,174.469z"/>
	<path d="M125.677,196.093c0-10.254,3.946-19.948,11.112-27.297c1.154-1.184,1.13-3.079-0.054-4.233
		c-1.184-1.154-3.078-1.131-4.233,0.055c-8.263,8.472-12.813,19.65-12.813,31.476c0,11.825,4.551,23.004,12.813,31.477
		c0.587,0.602,1.365,0.904,2.144,0.904c0.754,0,1.508-0.283,2.09-0.851c1.184-1.154,1.208-3.05,0.054-4.233
		C129.623,216.041,125.677,206.346,125.677,196.093z"/>
	<path d="M203.886,196.093c0,10.254-3.946,19.948-11.112,27.297c-1.154,1.184-1.13,3.079,0.054,4.233
		c0.582,0.567,1.336,0.851,2.09,0.851c0.778,0,1.557-0.303,2.144-0.904c8.263-8.473,12.814-19.651,12.814-31.477
		c0-11.825-4.551-23.004-12.814-31.476c-1.156-1.186-3.052-1.209-4.233-0.055c-1.184,1.154-1.208,3.05-0.054,4.233
		C199.939,176.144,203.886,185.839,203.886,196.093z"/>
	<path d="M111.643,196.093c0-13.997,5.403-27.213,15.214-37.213c1.158-1.181,1.141-3.076-0.04-4.233
		c-1.18-1.158-3.075-1.141-4.233,0.04c-10.917,11.127-16.929,25.832-16.929,41.406s6.012,30.278,16.929,41.405
		c0.586,0.598,1.361,0.898,2.137,0.898c0.757,0,1.514-0.285,2.097-0.857c1.181-1.157,1.198-3.053,0.04-4.233
		C117.047,223.304,111.643,210.089,111.643,196.093z"/>
	<path d="M217.919,196.093c0,13.996-5.403,27.212-15.214,37.212c-1.158,1.181-1.141,3.076,0.04,4.233
		c0.583,0.572,1.34,0.857,2.097,0.857c0.775,0,1.551-0.3,2.137-0.898c10.917-11.127,16.929-25.831,16.929-41.405
		s-6.012-30.279-16.929-41.406c-1.158-1.181-3.054-1.198-4.233-0.04c-1.181,1.157-1.198,3.053-0.04,4.233
		C212.515,168.88,217.919,182.096,217.919,196.093z"/>
	<circle cx="164.781" cy="196.093" r="11.232"/>
</g>
</svg>